<svg xmlns="http://www.w3.org/2000/svg" xmlns:xlink="http://www.w3.org/1999/xlink" viewBox="0,0,256,256" width="96px" height="96px" fill-rule="nonzero"><g transform="translate(25.6,25.6) scale(0.8,0.8)"><g fill="none" fill-rule="nonzero" stroke="none" stroke-width="1" stroke-linecap="butt" stroke-linejoin="none" stroke-miterlimit="10" stroke-dasharray="" stroke-dashoffset="0" font-family="none" font-weight="none" font-size="none" text-anchor="none" style="mix-blend-mode: normal"><path transform="scale(5.33333,5.33333)" d="M7,10l24.259,-0.001c1.661,0 3.251,0.683 4.387,1.895c3.414,3.641 10.948,11.213 10.948,11.213c0.778,0.778 0.782,2.038 0.009,2.82l-10.833,11.237c-1.131,1.173 -2.691,1.836 -4.32,1.836h-24.45c-2.761,0 -5,-2.239 -5,-5v-19c0,-2.762 2.238,-5 5,-5z" id="strokeMainSVG" fill="#f7ce51" stroke="#f7ce51" stroke-linejoin="round"></path><g transform="scale(5.33333,5.33333)" stroke="none" stroke-linejoin="miter"><path d="M2,15v19c0,2.761 2.239,5 5,5h24.45c1.629,0 3.189,-0.663 4.32,-1.836l10.833,-11.237c0.773,-0.782 0.769,-2.042 -0.009,-2.82c0,0 -7.534,-7.572 -10.948,-11.213c-1.136,-1.212 -2.726,-1.895 -4.387,-1.895l-24.259,0.001c-2.762,0 -5,2.238 -5,5z" fill="#ffd740"></path><path d="M19.962,25.499c-0.841,0 -1.625,0.008 -2.409,-0.002c-0.695,-0.009 -0.91,-0.262 -0.815,-0.939c0.111,-0.781 0.234,-1.56 0.348,-2.341c0.068,-0.462 0.322,-0.697 0.797,-0.696c1.994,0.003 3.989,-0.001 5.983,0.002c0.552,0.001 0.817,0.287 0.741,0.835c-0.403,2.908 -0.803,5.817 -1.241,8.721c-0.038,0.252 -0.291,0.576 -0.526,0.677c-3.57,1.549 -7.27,2.202 -11.089,1.18c-3.381,-0.905 -5.491,-3.649 -5.724,-7.144c-0.444,-6.678 4.443,-12.154 11.129,-12.458c1.831,-0.083 3.651,0.04 5.366,0.736c0.719,0.292 1.37,0.764 2.023,1.199c0.395,0.263 0.454,0.647 0.087,1c-0.837,0.805 -1.668,1.618 -2.548,2.375c-0.159,0.137 -0.615,0.134 -0.8,0.004c-4.263,-2.991 -9.678,-0.794 -10.644,4.337c-0.032,0.172 -0.067,0.345 -0.088,0.518c-0.489,3.955 2.149,6.438 6.259,5.821c0.915,-0.137 1.79,-0.539 2.684,-0.818c0.15,-0.961 0.299,-1.924 0.467,-3.007z" fill="#000000"></path><path d="M30.625,31.941c-3.372,0.005 -5.695,-2.076 -5.704,-5.133c-0.005,-1.684 0.507,-3.207 1.623,-4.476c2.006,-2.284 4.556,-3.073 7.482,-2.399c3.256,0.751 4.761,3.904 3.567,7.239c-1.035,2.89 -3.773,4.764 -6.968,4.769zM31.877,22.961c-2.25,-0.011 -3.837,2.198 -3.114,4.339c0.237,0.701 0.731,1.122 1.447,1.295c2.036,0.493 3.724,-0.694 4.047,-2.847c0.251,-1.674 -0.693,-2.779 -2.38,-2.787z" fill="#000000"></path></g></g><g fill="none" fill-rule="nonzero" stroke="none" stroke-width="none" stroke-linecap="butt" stroke-linejoin="none" stroke-miterlimit="10" stroke-dasharray="" stroke-dashoffset="0" font-family="none" font-weight="none" font-size="none" text-anchor="none" style="mix-blend-mode: normal"><path d="M149.68489,205.52812c-0.38667,3.40667 -1.55,6.42667 -3.49,9.06c-1.94,2.62667 -4.46667,4.64667 -7.58,6.06c-3.12,1.40667 -6.48333,2.07667 -10.09,2.01c-3.25333,-0.06667 -6.08667,-0.81667 -8.5,-2.25c-2.41333,-1.43333 -4.31333,-3.51 -5.7,-6.23c-1.39333,-2.72 -2.18,-5.85 -2.36,-9.39c-0.15333,-2.78 0.13667,-6.23333 0.87,-10.36c0.73333,-4.13333 2.04,-7.80333 3.92,-11.01c1.88667,-3.2 4.12667,-5.73667 6.72,-7.61c3.66,-2.62 7.83667,-3.88667 12.53,-3.8c5.1,0.09333 9.14667,1.67 12.14,4.73c2.98667,3.05333 4.62667,7.3 4.92,12.74l-9.88,-0.03c0,-3.11333 -0.62333,-5.39333 -1.87,-6.84c-1.24,-1.44667 -3.17,-2.21333 -5.79,-2.3c-3.38,-0.11333 -6.16,1.09333 -8.34,3.62c-2.18,2.52667 -3.64,6.21667 -4.38,11.07c-0.72667,4.72 -1.04333,8.25333 -0.95,10.6c0.11333,2.98 0.78,5.17333 2,6.58c1.21333,1.41333 2.91667,2.15333 5.11,2.22c3.02,0.11333 5.44,-0.60333 7.26,-2.15c1.81333,-1.54667 3.01333,-3.76333 3.6,-6.65zM183.80489,221.97812h-9.38c-0.29333,-0.92 -0.41667,-2.02333 -0.37,-3.31c-2.75333,2.75333 -5.86667,4.08333 -9.34,3.99c-3.20667,-0.04667 -5.86667,-1.09 -7.98,-3.13c-2.10667,-2.04 -3.09333,-4.56333 -2.96,-7.57c0.16,-3.99333 1.83667,-7.05667 5.03,-9.19c3.19333,-2.13333 7.47667,-3.2 12.85,-3.2l4.47,0.07l0.47,-2.2c0.13333,-0.74667 0.16667,-1.45667 0.1,-2.13c-0.11333,-1.06 -0.51333,-1.89 -1.2,-2.49c-0.68667,-0.6 -1.59667,-0.91 -2.73,-0.93c-1.48667,-0.04667 -2.75,0.32 -3.79,1.1c-1.03333,0.78 -1.69667,1.90333 -1.99,3.37l-9.59,0.03c0.16,-3.5 1.77,-6.33667 4.83,-8.51c3.06,-2.18 6.83333,-3.24667 11.32,-3.2c4.15333,0.08667 7.40333,1.32 9.75,3.7c2.34667,2.38 3.33,5.44333 2.95,9.19l-2.81,17.54l-0.17,2.17c-0.04667,1.6 0.14333,2.95333 0.57,4.06zM167.08489,215.24812c2.75333,0.08667 5.15667,-1.11 7.21,-3.59l1.18,-6.33l-3.32,-0.04c-3.52,0.09333 -6.05667,1.16667 -7.61,3.22c-0.56667,0.74667 -0.91667,1.66 -1.05,2.74c-0.18,1.22 0.07333,2.18667 0.76,2.9c0.68667,0.70667 1.63,1.07333 2.83,1.1zM214.71489,194.52812c-1.30667,-0.22667 -2.38,-0.34 -3.22,-0.34c-3.40667,-0.09333 -6.10333,1.18 -8.09,3.82l-4.23,23.97h-9.55l6.37,-36.63l8.97,-0.03l-0.88,4.47c2.3,-3.45333 5.14333,-5.18 8.53,-5.18c0.94667,0 2.05333,0.15667 3.32,0.47zM225.98489,176.34812h9.58l-1.59,9h6.1l-1.26,7.18h-6.09l-3.11,18.35c-0.14,1.15333 -0.05,2.03333 0.27,2.64c0.31333,0.60667 1.08,0.93333 2.3,0.98c0.36,0.02667 1.33,-0.03 2.91,-0.17l-0.68,7.48c-1.69333,0.56667 -3.52,0.82667 -5.48,0.78c-3.14,-0.04 -5.47667,-1.02 -7.01,-2.94c-1.53333,-1.92 -2.16667,-4.51667 -1.9,-7.79l3.15,-19.33h-5.18l1.26,-7.18h5.18z" id="strokeMainSVG" fill="#f7ce51" stroke="#f7ce51" stroke-width="5.33333" stroke-linejoin="round"></path><g fill="#000000" stroke="none" stroke-width="1" stroke-linejoin="miter"><path d="M139.82489,205.59812l9.86,-0.07c-0.38667,3.40667 -1.55,6.42667 -3.49,9.06c-1.94,2.62667 -4.46667,4.64667 -7.58,6.06c-3.12,1.40667 -6.48333,2.07667 -10.09,2.01v0c-3.25333,-0.06667 -6.08667,-0.81667 -8.5,-2.25c-2.41333,-1.43333 -4.31333,-3.51 -5.7,-6.23c-1.39333,-2.72 -2.18,-5.85 -2.36,-9.39v0c-0.15333,-2.78 0.13667,-6.23333 0.87,-10.36c0.73333,-4.13333 2.04,-7.80333 3.92,-11.01c1.88667,-3.2 4.12667,-5.73667 6.72,-7.61v0c3.66,-2.62 7.83667,-3.88667 12.53,-3.8v0c5.1,0.09333 9.14667,1.67 12.14,4.73c2.98667,3.05333 4.62667,7.3 4.92,12.74v0l-9.88,-0.03c0,-3.11333 -0.62333,-5.39333 -1.87,-6.84c-1.24,-1.44667 -3.17,-2.21333 -5.79,-2.3v0c-3.38,-0.11333 -6.16,1.09333 -8.34,3.62c-2.18,2.52667 -3.64,6.21667 -4.38,11.07v0c-0.72667,4.72 -1.04333,8.25333 -0.95,10.6v0c0.11333,2.98 0.78,5.17333 2,6.58c1.21333,1.41333 2.91667,2.15333 5.11,2.22v0c3.02,0.11333 5.44,-0.60333 7.26,-2.15c1.81333,-1.54667 3.01333,-3.76333 3.6,-6.65zM183.80489,221.97812h-9.38c-0.29333,-0.92 -0.41667,-2.02333 -0.37,-3.31v0c-2.75333,2.75333 -5.86667,4.08333 -9.34,3.99v0c-3.20667,-0.04667 -5.86667,-1.09 -7.98,-3.13c-2.10667,-2.04 -3.09333,-4.56333 -2.96,-7.57v0c0.16,-3.99333 1.83667,-7.05667 5.03,-9.19c3.19333,-2.13333 7.47667,-3.2 12.85,-3.2v0l4.47,0.07l0.47,-2.2c0.13333,-0.74667 0.16667,-1.45667 0.1,-2.13v0c-0.11333,-1.06 -0.51333,-1.89 -1.2,-2.49c-0.68667,-0.6 -1.59667,-0.91 -2.73,-0.93v0c-1.48667,-0.04667 -2.75,0.32 -3.79,1.1c-1.03333,0.78 -1.69667,1.90333 -1.99,3.37v0l-9.59,0.03c0.16,-3.5 1.77,-6.33667 4.83,-8.51c3.06,-2.18 6.83333,-3.24667 11.32,-3.2v0c4.15333,0.08667 7.40333,1.32 9.75,3.7c2.34667,2.38 3.33,5.44333 2.95,9.19v0l-2.81,17.54l-0.17,2.17c-0.04667,1.6 0.14333,2.95333 0.57,4.06v0zM167.08489,215.24812v0c2.75333,0.08667 5.15667,-1.11 7.21,-3.59v0l1.18,-6.33l-3.32,-0.04c-3.52,0.09333 -6.05667,1.16667 -7.61,3.22v0c-0.56667,0.74667 -0.91667,1.66 -1.05,2.74v0c-0.18,1.22 0.07333,2.18667 0.76,2.9c0.68667,0.70667 1.63,1.07333 2.83,1.1zM215.93489,185.07812l-1.22,9.45c-1.30667,-0.22667 -2.38,-0.34 -3.22,-0.34v0c-3.40667,-0.09333 -6.10333,1.18 -8.09,3.82v0l-4.23,23.97h-9.55l6.37,-36.63l8.97,-0.03l-0.88,4.47c2.3,-3.45333 5.14333,-5.18 8.53,-5.18v0c0.94667,0 2.05333,0.15667 3.32,0.47zM225.98489,176.34812h9.58l-1.59,9h6.1l-1.26,7.18h-6.09l-3.11,18.35c-0.14,1.15333 -0.05,2.03333 0.27,2.64c0.31333,0.60667 1.08,0.93333 2.3,0.98v0c0.36,0.02667 1.33,-0.03 2.91,-0.17v0l-0.68,7.48c-1.69333,0.56667 -3.52,0.82667 -5.48,0.78v0c-3.14,-0.04 -5.47667,-1.02 -7.01,-2.94c-1.53333,-1.92 -2.16667,-4.51667 -1.9,-7.79v0l3.15,-19.33h-5.18l1.26,-7.18h5.18z"></path></g></g></g></svg>